<svg width="250" height="20" viewBox="0 0 250 20" fill="none" xmlns="http://www.w3.org/2000/svg">
<rect x="242" y="12" width="4" height="4" fill="#00E469"/>
<rect x="238" y="16" width="4" height="4" fill="#00E469"/>
<rect x="242" y="4" width="4" height="4" fill="#00E469"/>
<rect x="246" y="8" width="4" height="4" fill="#00E469"/>
<rect x="238" width="4" height="4" fill="#00E469"/>
<rect x="4" width="4" height="4" fill="#00E469"/>
<rect x="8" width="4" height="4" fill="#00E469"/>
<rect x="12" width="4" height="4" fill="#00E469"/>
<rect x="4" y="16" width="4" height="4" fill="#00E469"/>
<rect x="8" y="16" width="4" height="4" fill="#00E469"/>
<rect x="12" y="16" width="4" height="4" fill="#00E469"/>
<rect x="16" y="12" width="4" height="4" transform="rotate(-90 16 12)" fill="#00E469"/>
<rect x="16" y="16" width="4" height="4" transform="rotate(-90 16 16)" fill="#00E469"/>
<rect x="16" y="8" width="4" height="4" transform="rotate(-90 16 8)" fill="#00E469"/>
<rect y="12" width="4" height="4" transform="rotate(-90 0 12)" fill="#00E469"/>
<rect y="16" width="4" height="4" transform="rotate(-90 0 16)" fill="#00E469"/>
<rect y="8" width="4" height="4" transform="rotate(-90 0 8)" fill="#00E469"/>
<rect x="32" y="12" width="4" height="4" transform="rotate(-90 32 12)" fill="#00E469"/>
<rect x="36" y="12" width="4" height="4" transform="rotate(-90 36 12)" fill="#00E469"/>
<rect x="40" y="12" width="4" height="4" transform="rotate(-90 40 12)" fill="#00E469"/>
<rect x="56" y="12" width="4" height="4" transform="rotate(-90 56 12)" fill="#00E469"/>
<rect x="60" y="12" width="4" height="4" transform="rotate(-90 60 12)" fill="#00E469"/>
<rect x="64" y="12" width="4" height="4" transform="rotate(-90 64 12)" fill="#00E469"/>
<rect x="80" y="12" width="4" height="4" transform="rotate(-90 80 12)" fill="#00E469"/>
<rect x="84" y="12" width="4" height="4" transform="rotate(-90 84 12)" fill="#00E469"/>
<rect x="88" y="12" width="4" height="4" transform="rotate(-90 88 12)" fill="#00E469"/>
<rect x="104" y="12" width="4" height="4" transform="rotate(-90 104 12)" fill="#00E469"/>
<rect x="108" y="12" width="4" height="4" transform="rotate(-90 108 12)" fill="#00E469"/>
<rect x="112" y="12" width="4" height="4" transform="rotate(-90 112 12)" fill="#00E469"/>
<rect x="128" y="12" width="4" height="4" transform="rotate(-90 128 12)" fill="#00E469"/>
<rect x="132" y="12" width="4" height="4" transform="rotate(-90 132 12)" fill="#00E469"/>
<rect x="136" y="12" width="4" height="4" transform="rotate(-90 136 12)" fill="#00E469"/>
<rect x="152" y="12" width="4" height="4" transform="rotate(-90 152 12)" fill="#00E469"/>
<rect x="156" y="12" width="4" height="4" transform="rotate(-90 156 12)" fill="#00E469"/>
<rect x="160" y="12" width="4" height="4" transform="rotate(-90 160 12)" fill="#00E469"/>
<rect x="176" y="12" width="4" height="4" transform="rotate(-90 176 12)" fill="#00E469"/>
<rect x="180" y="12" width="4" height="4" transform="rotate(-90 180 12)" fill="#00E469"/>
<rect x="184" y="12" width="4" height="4" transform="rotate(-90 184 12)" fill="#00E469"/>
<rect x="200" y="12" width="4" height="4" transform="rotate(-90 200 12)" fill="#00E469"/>
<rect x="204" y="12" width="4" height="4" transform="rotate(-90 204 12)" fill="#00E469"/>
<rect x="208" y="12" width="4" height="4" transform="rotate(-90 208 12)" fill="#00E469"/>
<rect x="224" y="12" width="4" height="4" transform="rotate(-90 224 12)" fill="#00E469"/>
<rect x="228" y="12" width="4" height="4" transform="rotate(-90 228 12)" fill="#00E469"/>
<rect x="232" y="12" width="4" height="4" transform="rotate(-90 232 12)" fill="#00E469"/>
</svg>

