<svg width="310" height="310" viewBox="0 0 310 310" fill="none" xmlns="http://www.w3.org/2000/svg">
<rect x="238" y="204" width="4" height="4" fill="#00E469"/>
<rect x="204" y="204" width="4" height="4" fill="#00E469"/>
<rect x="204" y="238" width="4" height="4" fill="#00E469"/>
<rect x="238" y="238" width="4" height="4" fill="#00E469"/>
<rect x="170" y="204" width="4" height="4" fill="#00E469"/>
<rect x="136" y="204" width="4" height="4" fill="#00E469"/>
<rect x="136" y="238" width="4" height="4" fill="#00E469"/>
<rect x="170" y="238" width="4" height="4" fill="#00E469"/>
<rect x="238" y="272" width="4" height="4" fill="#00E469"/>
<rect x="204" y="272" width="4" height="4" fill="#00E469"/>
<rect x="204" y="306" width="4" height="4" fill="#00E469"/>
<rect x="238" y="306" width="4" height="4" fill="#00E469"/>
<rect x="170" y="272" width="4" height="4" fill="#00E469"/>
<rect x="136" y="272" width="4" height="4" fill="#00E469"/>
<rect x="136" y="306" width="4" height="4" fill="#00E469"/>
<rect x="170" y="306" width="4" height="4" fill="#00E469"/>
<rect x="238" y="68" width="4" height="4" fill="#00E469"/>
<rect x="204" y="68" width="4" height="4" fill="#00E469"/>
<rect x="204" y="102" width="4" height="4" fill="#00E469"/>
<rect x="238" y="102" width="4" height="4" fill="#00E469"/>
<rect x="170" y="68" width="4" height="4" fill="#00E469"/>
<rect x="136" y="68" width="4" height="4" fill="#00E469"/>
<rect x="136" y="102" width="4" height="4" fill="#00E469"/>
<rect x="170" y="102" width="4" height="4" fill="#00E469"/>
<rect x="238" y="136" width="4" height="4" fill="#00E469"/>
<rect x="204" y="136" width="4" height="4" fill="#00E469"/>
<rect x="204" y="170" width="4" height="4" fill="#00E469"/>
<rect x="238" y="170" width="4" height="4" fill="#00E469"/>
<rect x="306" y="204" width="4" height="4" fill="#00E469"/>
<rect x="272" y="204" width="4" height="4" fill="#00E469"/>
<rect x="272" y="238" width="4" height="4" fill="#00E469"/>
<rect x="306" y="238" width="4" height="4" fill="#00E469"/>
<rect x="306" y="272" width="4" height="4" fill="#00E469"/>
<rect x="272" y="272" width="4" height="4" fill="#00E469"/>
<rect x="272" y="306" width="4" height="4" fill="#00E469"/>
<rect x="306" y="306" width="4" height="4" fill="#00E469"/>
<rect x="306" y="68" width="4" height="4" fill="#00E469"/>
<rect x="272" y="68" width="4" height="4" fill="#00E469"/>
<rect x="272" y="102" width="4" height="4" fill="#00E469"/>
<rect x="306" y="102" width="4" height="4" fill="#00E469"/>
<rect x="306" y="136" width="4" height="4" fill="#00E469"/>
<rect x="272" y="136" width="4" height="4" fill="#00E469"/>
<rect x="272" y="170" width="4" height="4" fill="#00E469"/>
<rect x="306" y="170" width="4" height="4" fill="#00E469"/>
<rect x="170" y="136" width="4" height="4" fill="#00E469"/>
<rect x="136" y="136" width="4" height="4" fill="#00E469"/>
<rect x="136" y="170" width="4" height="4" fill="#00E469"/>
<rect x="170" y="170" width="4" height="4" fill="#00E469"/>
<rect x="102" y="204" width="4" height="4" fill="#00E469"/>
<rect x="68" y="204" width="4" height="4" fill="#00E469"/>
<rect x="68" y="238" width="4" height="4" fill="#00E469"/>
<rect x="102" y="238" width="4" height="4" fill="#00E469"/>
<rect x="34" y="204" width="4" height="4" fill="#00E469"/>
<rect y="204" width="4" height="4" fill="#00E469"/>
<rect y="238" width="4" height="4" fill="#00E469"/>
<rect x="34" y="238" width="4" height="4" fill="#00E469"/>
<rect x="102" y="272" width="4" height="4" fill="#00E469"/>
<rect x="68" y="272" width="4" height="4" fill="#00E469"/>
<rect x="68" y="306" width="4" height="4" fill="#00E469"/>
<rect x="102" y="306" width="4" height="4" fill="#00E469"/>
<rect x="34" y="272" width="4" height="4" fill="#00E469"/>
<rect y="272" width="4" height="4" fill="#00E469"/>
<rect y="306" width="4" height="4" fill="#00E469"/>
<rect x="34" y="306" width="4" height="4" fill="#00E469"/>
<rect x="102" y="68" width="4" height="4" fill="#00E469"/>
<rect x="68" y="68" width="4" height="4" fill="#00E469"/>
<rect x="68" y="102" width="4" height="4" fill="#00E469"/>
<rect x="102" y="102" width="4" height="4" fill="#00E469"/>
<rect x="34" y="68" width="4" height="4" fill="#00E469"/>
<rect y="68" width="4" height="4" fill="#00E469"/>
<rect y="102" width="4" height="4" fill="#00E469"/>
<rect x="34" y="102" width="4" height="4" fill="#00E469"/>
<rect x="238" width="4" height="4" fill="#00E469"/>
<rect x="204" width="4" height="4" fill="#00E469"/>
<rect x="204" y="34" width="4" height="4" fill="#00E469"/>
<rect x="238" y="34" width="4" height="4" fill="#00E469"/>
<rect x="170" width="4" height="4" fill="#00E469"/>
<rect x="136" width="4" height="4" fill="#00E469"/>
<rect x="136" y="34" width="4" height="4" fill="#00E469"/>
<rect x="170" y="34" width="4" height="4" fill="#00E469"/>
<rect x="306" width="4" height="4" fill="#00E469"/>
<rect x="272" width="4" height="4" fill="#00E469"/>
<rect x="272" y="34" width="4" height="4" fill="#00E469"/>
<rect x="306" y="34" width="4" height="4" fill="#00E469"/>
<rect x="102" width="4" height="4" fill="#00E469"/>
<rect x="68" width="4" height="4" fill="#00E469"/>
<rect x="68" y="34" width="4" height="4" fill="#00E469"/>
<rect x="102" y="34" width="4" height="4" fill="#00E469"/>
<rect x="34" width="4" height="4" fill="#00E469"/>
<rect width="4" height="4" fill="#00E469"/>
<rect y="34" width="4" height="4" fill="#00E469"/>
<rect x="34" y="34" width="4" height="4" fill="#00E469"/>
<rect x="102" y="136" width="4" height="4" fill="#00E469"/>
<rect x="68" y="136" width="4" height="4" fill="#00E469"/>
<rect x="68" y="170" width="4" height="4" fill="#00E469"/>
<rect x="102" y="170" width="4" height="4" fill="#00E469"/>
<rect x="34" y="136" width="4" height="4" fill="#00E469"/>
<rect y="136" width="4" height="4" fill="#00E469"/>
<rect y="170" width="4" height="4" fill="#00E469"/>
<rect x="34" y="170" width="4" height="4" fill="#00E469"/>
</svg>
