<svg width="250" height="20" viewBox="0 0 250 20" fill="none" xmlns="http://www.w3.org/2000/svg">
<rect x="242" y="12" width="4" height="4" fill="#00E469"/>
<rect x="238" y="16" width="4" height="4" fill="#00E469"/>
<rect x="242" y="4" width="4" height="4" fill="#00E469"/>
<rect x="246" y="8" width="4" height="4" fill="#00E469"/>
<rect x="20" y="8" width="226" height="4" fill="#00E469"/>
<rect x="238" width="4" height="4" fill="#00E469"/>
<rect x="4" width="4" height="4" fill="#00E469"/>
<rect x="8" width="4" height="4" fill="#00E469"/>
<rect x="12" width="4" height="4" fill="#00E469"/>
<rect x="4" y="16" width="4" height="4" fill="#00E469"/>
<rect x="8" y="16" width="4" height="4" fill="#00E469"/>
<rect x="12" y="16" width="4" height="4" fill="#00E469"/>
<rect x="16" y="12" width="4" height="4" transform="rotate(-90 16 12)" fill="#00E469"/>
<rect x="16" y="16" width="4" height="4" transform="rotate(-90 16 16)" fill="#00E469"/>
<rect x="16" y="8" width="4" height="4" transform="rotate(-90 16 8)" fill="#00E469"/>
<rect y="12" width="4" height="4" transform="rotate(-90 0 12)" fill="#00E469"/>
<rect y="16" width="4" height="4" transform="rotate(-90 0 16)" fill="#00E469"/>
<rect y="8" width="4" height="4" transform="rotate(-90 0 8)" fill="#00E469"/>
</svg>
