<svg width="58" height="12" viewBox="0 0 58 12" fill="none" xmlns="http://www.w3.org/2000/svg">
<path d="M12.671 0V8.64487H11.4642V0L4.22367 6.89495e-06V8.64488H3.01691V0L0 6.89495e-06L1.32528e-05 12L7.24057 11.968V3.29121H8.46417L8.44733 11.968L15.6879 11.968V-1.09458e-06L12.671 0Z" fill="#00E469"/>
<path d="M27.8005 8.947V1.89353e-05H18.7686V3.02108H24.7898V5.22877C24.2109 4.60132 23.3077 4.06683 21.5708 4.06683C18.7454 4.06683 17.4254 5.87946 17.4254 8.01744C17.4254 10.1554 18.7454 11.9681 21.5708 11.9681C23.3077 11.9681 24.2109 11.4103 24.7898 10.8061V11.9681H29.3058V8.947H27.8005ZM22.6129 9.22586C21.0381 9.22586 20.436 8.94699 20.436 8.01744C20.436 7.08788 21.0381 6.80902 22.6129 6.80902C24.1877 6.80902 24.7898 7.08788 24.7898 8.01744C24.7898 8.94699 24.1877 9.22586 22.6129 9.22586Z" fill="#00E469"/>
<path d="M30.6901 1.89353e-05V11.9681H33.7007V1.89353e-05H30.6901Z" fill="#00E469"/>
<path d="M34.9545 5.97242C34.9545 9.38854 36.7377 11.9681 40.4431 11.9681C43.8706 11.9681 45.6539 9.62092 45.6539 7.08788H42.6432C42.5506 8.18011 42.18 8.947 40.4895 8.947C38.4515 8.947 37.9652 8.06392 37.9652 5.97242C37.9652 3.88092 38.4515 3.02108 40.4895 3.02108C42.18 3.02108 42.5506 3.78796 42.6432 4.88019H45.6539C45.6539 2.34715 43.8706 1.89353e-05 40.4431 1.89353e-05C36.7377 1.89353e-05 34.9545 2.5563 34.9545 5.97242Z" fill="#00E469"/>
<path d="M52.2335 11.9681C55.9852 11.9681 58 9.38854 58 5.97242C58 2.5563 55.9852 1.89353e-05 52.2335 1.89353e-05C48.4818 1.89353e-05 46.4669 2.5563 46.4669 5.97242C46.4669 9.38854 48.4818 11.9681 52.2335 11.9681ZM52.2335 8.947C50.1955 8.947 49.4776 8.29631 49.4776 5.97242C49.4776 3.64853 50.1955 3.02108 52.2335 3.02108C54.2714 3.02108 54.9894 3.64853 54.9894 5.97242C54.9894 8.29631 54.2714 8.947 52.2335 8.947Z" fill="#00E469"/>
</svg>
