<svg width="92" height="19" viewBox="0 0 92 19" fill="none" xmlns="http://www.w3.org/2000/svg">
<path d="M20.0988 0V13.6877H18.1847V0L6.69961 1.0917e-05V13.6877H4.78544V0L0 1.0917e-05L2.10218e-05 19L11.485 18.9494V5.21108H13.4259L13.3992 18.9494L24.8843 18.9494V-1.73308e-06L20.0988 0Z" fill="#00E469"/>
<path d="M44.0973 14.1661V2.99809e-05H29.7708V4.78337H39.3218V8.27889C38.4034 7.28543 36.9708 6.43914 34.2157 6.43914C29.7341 6.43914 27.6402 9.30914 27.6402 12.6943C27.6402 16.0794 29.7341 18.9494 34.2157 18.9494C36.9708 18.9494 38.4034 18.0663 39.3218 17.1097V18.9494H46.485V14.1661H44.0973ZM35.8687 14.6076C33.3708 14.6076 32.4157 14.1661 32.4157 12.6943C32.4157 11.2225 33.3708 10.7809 35.8687 10.7809C38.3667 10.7809 39.3218 11.2225 39.3218 12.6943C39.3218 14.1661 38.3667 14.6076 35.8687 14.6076Z" fill="#00E469"/>
<path d="M48.6808 2.99809e-05V18.9494H53.4563V2.99809e-05H48.6808Z" fill="#00E469"/>
<path d="M55.4451 9.45633C55.4451 14.8652 58.2737 18.9494 64.1512 18.9494C69.5879 18.9494 72.4165 15.2331 72.4165 11.2225H67.641C67.494 12.9518 66.9063 14.1661 64.2247 14.1661C60.992 14.1661 60.2206 12.7679 60.2206 9.45633C60.2206 6.14478 60.992 4.78337 64.2247 4.78337C66.9063 4.78337 67.494 5.9976 67.641 7.72697H72.4165C72.4165 3.71632 69.5879 2.99809e-05 64.1512 2.99809e-05C58.2737 2.99809e-05 55.4451 4.04747 55.4451 9.45633Z" fill="#00E469"/>
<path d="M82.8531 18.9494C88.8041 18.9494 92 14.8652 92 9.45633C92 4.04747 88.8041 2.99809e-05 82.8531 2.99809e-05C76.9021 2.99809e-05 73.7062 4.04747 73.7062 9.45633C73.7062 14.8652 76.9021 18.9494 82.8531 18.9494ZM82.8531 14.1661C79.6205 14.1661 78.4817 13.1358 78.4817 9.45633C78.4817 5.77684 79.6205 4.78337 82.8531 4.78337C86.0857 4.78337 87.2245 5.77684 87.2245 9.45633C87.2245 13.1358 86.0857 14.1661 82.8531 14.1661Z" fill="#00E469"/>
</svg>
