<svg width="248" height="20" viewBox="0 0 248 20" fill="none" xmlns="http://www.w3.org/2000/svg">
<rect x="8" y="12" width="4" height="4" transform="rotate(-90 8 12)" fill="#00E469"/>
<rect x="8" y="16" width="4" height="4" transform="rotate(-90 8 16)" fill="#00E469"/>
<rect x="4" y="16" width="4" height="4" transform="rotate(-90 4 16)" fill="#00E469"/>
<rect y="16" width="4" height="4" transform="rotate(-90 0 16)" fill="#00E469"/>
<rect x="8" y="4" width="4" height="4" transform="rotate(-90 8 4)" fill="#00E469"/>
<rect x="12" y="4" width="4" height="4" transform="rotate(-90 12 4)" fill="#00E469"/>
<rect x="36" y="4" width="4" height="4" transform="rotate(-90 36 4)" fill="#00E469"/>
<rect x="20" y="4" width="4" height="4" transform="rotate(-90 20 4)" fill="#00E469"/>
<rect x="16" y="4" width="4" height="4" transform="rotate(-90 16 4)" fill="#00E469"/>
<rect x="8" y="8" width="4" height="4" transform="rotate(-90 8 8)" fill="#00E469"/>
<rect x="20" y="16" width="4" height="4" transform="rotate(-90 20 16)" fill="#00E469"/>
<rect x="24" y="16" width="4" height="4" transform="rotate(-90 24 16)" fill="#00E469"/>
<rect x="20" y="12" width="4" height="4" transform="rotate(-90 20 12)" fill="#00E469"/>
<rect x="20" y="8" width="4" height="4" transform="rotate(-90 20 8)" fill="#00E469"/>
<rect x="40" y="4" width="4" height="4" transform="rotate(-90 40 4)" fill="#00E469"/>
<rect x="44" y="4" width="4" height="4" transform="rotate(-90 44 4)" fill="#00E469"/>
<rect x="44" y="16" width="4" height="4" transform="rotate(-90 44 16)" fill="#00E469"/>
<rect x="48" y="16" width="4" height="4" transform="rotate(-90 48 16)" fill="#00E469"/>
<rect x="52" y="16" width="4" height="4" transform="rotate(-90 52 16)" fill="#00E469"/>
<rect x="44" y="8" width="4" height="4" transform="rotate(-90 44 8)" fill="#00E469"/>
<rect x="44" y="12" width="4" height="4" transform="rotate(-90 44 12)" fill="#00E469"/>
<rect x="32" y="4" width="4" height="4" transform="rotate(-90 32 4)" fill="#00E469"/>
<rect x="28" y="16" width="4" height="4" transform="rotate(-90 28 16)" fill="#00E469"/>
<rect x="32" y="8" width="4" height="4" transform="rotate(-90 32 8)" fill="#00E469"/>
<rect x="32" y="12" width="4" height="4" transform="rotate(-90 32 12)" fill="#00E469"/>
<rect x="32" y="16" width="4" height="4" transform="rotate(-90 32 16)" fill="#00E469"/>
<rect x="56" y="12" width="4" height="4" transform="rotate(-90 56 12)" fill="#00E469"/>
<rect x="56" y="16" width="4" height="4" transform="rotate(-90 56 16)" fill="#00E469"/>
<rect x="56" y="4" width="4" height="4" transform="rotate(-90 56 4)" fill="#00E469"/>
<rect x="60" y="4" width="4" height="4" transform="rotate(-90 60 4)" fill="#00E469"/>
<rect x="84" y="4" width="4" height="4" transform="rotate(-90 84 4)" fill="#00E469"/>
<rect x="68" y="4" width="4" height="4" transform="rotate(-90 68 4)" fill="#00E469"/>
<rect x="64" y="4" width="4" height="4" transform="rotate(-90 64 4)" fill="#00E469"/>
<rect x="56" y="8" width="4" height="4" transform="rotate(-90 56 8)" fill="#00E469"/>
<rect x="68" y="16" width="4" height="4" transform="rotate(-90 68 16)" fill="#00E469"/>
<rect x="72" y="16" width="4" height="4" transform="rotate(-90 72 16)" fill="#00E469"/>
<rect x="68" y="12" width="4" height="4" transform="rotate(-90 68 12)" fill="#00E469"/>
<rect x="68" y="8" width="4" height="4" transform="rotate(-90 68 8)" fill="#00E469"/>
<rect x="88" y="4" width="4" height="4" transform="rotate(-90 88 4)" fill="#00E469"/>
<rect x="92" y="4" width="4" height="4" transform="rotate(-90 92 4)" fill="#00E469"/>
<rect x="92" y="16" width="4" height="4" transform="rotate(-90 92 16)" fill="#00E469"/>
<rect x="96" y="16" width="4" height="4" transform="rotate(-90 96 16)" fill="#00E469"/>
<rect x="100" y="16" width="4" height="4" transform="rotate(-90 100 16)" fill="#00E469"/>
<rect x="92" y="8" width="4" height="4" transform="rotate(-90 92 8)" fill="#00E469"/>
<rect x="92" y="12" width="4" height="4" transform="rotate(-90 92 12)" fill="#00E469"/>
<rect x="80" y="4" width="4" height="4" transform="rotate(-90 80 4)" fill="#00E469"/>
<rect x="76" y="16" width="4" height="4" transform="rotate(-90 76 16)" fill="#00E469"/>
<rect x="80" y="8" width="4" height="4" transform="rotate(-90 80 8)" fill="#00E469"/>
<rect x="80" y="12" width="4" height="4" transform="rotate(-90 80 12)" fill="#00E469"/>
<rect x="80" y="16" width="4" height="4" transform="rotate(-90 80 16)" fill="#00E469"/>
<rect x="104" y="12" width="4" height="4" transform="rotate(-90 104 12)" fill="#00E469"/>
<rect x="104" y="16" width="4" height="4" transform="rotate(-90 104 16)" fill="#00E469"/>
<rect x="104" y="4" width="4" height="4" transform="rotate(-90 104 4)" fill="#00E469"/>
<rect x="108" y="4" width="4" height="4" transform="rotate(-90 108 4)" fill="#00E469"/>
<rect x="132" y="4" width="4" height="4" transform="rotate(-90 132 4)" fill="#00E469"/>
<rect x="116" y="4" width="4" height="4" transform="rotate(-90 116 4)" fill="#00E469"/>
<rect x="112" y="4" width="4" height="4" transform="rotate(-90 112 4)" fill="#00E469"/>
<rect x="104" y="8" width="4" height="4" transform="rotate(-90 104 8)" fill="#00E469"/>
<rect x="116" y="16" width="4" height="4" transform="rotate(-90 116 16)" fill="#00E469"/>
<rect x="120" y="16" width="4" height="4" transform="rotate(-90 120 16)" fill="#00E469"/>
<rect x="116" y="12" width="4" height="4" transform="rotate(-90 116 12)" fill="#00E469"/>
<rect x="116" y="8" width="4" height="4" transform="rotate(-90 116 8)" fill="#00E469"/>
<rect x="136" y="4" width="4" height="4" transform="rotate(-90 136 4)" fill="#00E469"/>
<rect x="140" y="4" width="4" height="4" transform="rotate(-90 140 4)" fill="#00E469"/>
<rect x="140" y="16" width="4" height="4" transform="rotate(-90 140 16)" fill="#00E469"/>
<rect x="144" y="16" width="4" height="4" transform="rotate(-90 144 16)" fill="#00E469"/>
<rect x="148" y="16" width="4" height="4" transform="rotate(-90 148 16)" fill="#00E469"/>
<rect x="140" y="8" width="4" height="4" transform="rotate(-90 140 8)" fill="#00E469"/>
<rect x="140" y="12" width="4" height="4" transform="rotate(-90 140 12)" fill="#00E469"/>
<rect x="128" y="4" width="4" height="4" transform="rotate(-90 128 4)" fill="#00E469"/>
<rect x="124" y="16" width="4" height="4" transform="rotate(-90 124 16)" fill="#00E469"/>
<rect x="128" y="8" width="4" height="4" transform="rotate(-90 128 8)" fill="#00E469"/>
<rect x="128" y="12" width="4" height="4" transform="rotate(-90 128 12)" fill="#00E469"/>
<rect x="128" y="16" width="4" height="4" transform="rotate(-90 128 16)" fill="#00E469"/>
<rect x="152" y="12" width="4" height="4" transform="rotate(-90 152 12)" fill="#00E469"/>
<rect x="152" y="16" width="4" height="4" transform="rotate(-90 152 16)" fill="#00E469"/>
<rect x="152" y="4" width="4" height="4" transform="rotate(-90 152 4)" fill="#00E469"/>
<rect x="156" y="4" width="4" height="4" transform="rotate(-90 156 4)" fill="#00E469"/>
<rect x="180" y="4" width="4" height="4" transform="rotate(-90 180 4)" fill="#00E469"/>
<rect x="164" y="4" width="4" height="4" transform="rotate(-90 164 4)" fill="#00E469"/>
<rect x="160" y="4" width="4" height="4" transform="rotate(-90 160 4)" fill="#00E469"/>
<rect x="152" y="8" width="4" height="4" transform="rotate(-90 152 8)" fill="#00E469"/>
<rect x="164" y="16" width="4" height="4" transform="rotate(-90 164 16)" fill="#00E469"/>
<rect x="168" y="16" width="4" height="4" transform="rotate(-90 168 16)" fill="#00E469"/>
<rect x="164" y="12" width="4" height="4" transform="rotate(-90 164 12)" fill="#00E469"/>
<rect x="164" y="8" width="4" height="4" transform="rotate(-90 164 8)" fill="#00E469"/>
<rect x="184" y="4" width="4" height="4" transform="rotate(-90 184 4)" fill="#00E469"/>
<rect x="188" y="4" width="4" height="4" transform="rotate(-90 188 4)" fill="#00E469"/>
<rect x="188" y="16" width="4" height="4" transform="rotate(-90 188 16)" fill="#00E469"/>
<rect x="192" y="16" width="4" height="4" transform="rotate(-90 192 16)" fill="#00E469"/>
<rect x="196" y="16" width="4" height="4" transform="rotate(-90 196 16)" fill="#00E469"/>
<rect x="188" y="8" width="4" height="4" transform="rotate(-90 188 8)" fill="#00E469"/>
<rect x="188" y="12" width="4" height="4" transform="rotate(-90 188 12)" fill="#00E469"/>
<rect x="176" y="4" width="4" height="4" transform="rotate(-90 176 4)" fill="#00E469"/>
<rect x="172" y="16" width="4" height="4" transform="rotate(-90 172 16)" fill="#00E469"/>
<rect x="176" y="8" width="4" height="4" transform="rotate(-90 176 8)" fill="#00E469"/>
<rect x="176" y="12" width="4" height="4" transform="rotate(-90 176 12)" fill="#00E469"/>
<rect x="176" y="16" width="4" height="4" transform="rotate(-90 176 16)" fill="#00E469"/>
<rect x="200" y="12" width="4" height="4" transform="rotate(-90 200 12)" fill="#00E469"/>
<rect x="200" y="16" width="4" height="4" transform="rotate(-90 200 16)" fill="#00E469"/>
<rect x="200" y="4" width="4" height="4" transform="rotate(-90 200 4)" fill="#00E469"/>
<rect x="204" y="4" width="4" height="4" transform="rotate(-90 204 4)" fill="#00E469"/>
<rect x="228" y="4" width="4" height="4" transform="rotate(-90 228 4)" fill="#00E469"/>
<rect x="212" y="4" width="4" height="4" transform="rotate(-90 212 4)" fill="#00E469"/>
<rect x="208" y="4" width="4" height="4" transform="rotate(-90 208 4)" fill="#00E469"/>
<rect x="200" y="8" width="4" height="4" transform="rotate(-90 200 8)" fill="#00E469"/>
<rect x="212" y="16" width="4" height="4" transform="rotate(-90 212 16)" fill="#00E469"/>
<rect x="216" y="16" width="4" height="4" transform="rotate(-90 216 16)" fill="#00E469"/>
<rect x="212" y="12" width="4" height="4" transform="rotate(-90 212 12)" fill="#00E469"/>
<rect x="212" y="8" width="4" height="4" transform="rotate(-90 212 8)" fill="#00E469"/>
<rect x="232" y="4" width="4" height="4" transform="rotate(-90 232 4)" fill="#00E469"/>
<rect x="236" y="4" width="4" height="4" transform="rotate(-90 236 4)" fill="#00E469"/>
<rect x="236" y="16" width="4" height="4" transform="rotate(-90 236 16)" fill="#00E469"/>
<rect x="240" y="16" width="4" height="4" transform="rotate(-90 240 16)" fill="#00E469"/>
<rect x="244" y="16" width="4" height="4" transform="rotate(-90 244 16)" fill="#00E469"/>
<rect x="236" y="8" width="4" height="4" transform="rotate(-90 236 8)" fill="#00E469"/>
<rect x="236" y="12" width="4" height="4" transform="rotate(-90 236 12)" fill="#00E469"/>
<rect x="224" y="4" width="4" height="4" transform="rotate(-90 224 4)" fill="#00E469"/>
<rect x="220" y="16" width="4" height="4" transform="rotate(-90 220 16)" fill="#00E469"/>
<rect x="224" y="8" width="4" height="4" transform="rotate(-90 224 8)" fill="#00E469"/>
<rect x="224" y="12" width="4" height="4" transform="rotate(-90 224 12)" fill="#00E469"/>
<rect x="224" y="16" width="4" height="4" transform="rotate(-90 224 16)" fill="#00E469"/>
</svg>


